# xmcd
#
# Track frame offsets: 
#        150
#        19877
#        49721
#        70841
#        97779
#        125104
#        151314
#        164862
#        189782
#        208058
#        236103
#        260874
#
# Disc length: 3814 seconds
#
# Revision: 0
# Processed by: cddbd v1.5.2PL0 Copyright (c) Steve Scherf et al.
# Submitted via: ExactAudioCopy v1.0b3
#
DISCID=ac0ee40c
DTITLE=Mong Thi, Manh Quynh - Nhat Ky Hai Dua Minh
DYEAR=2000
DGENRE=
TTITLE0=Mong Thi - Sao em lay chong xa
TTITLE1=Manh Quynh - Tinh khuc doan truong
TTITLE2=Mong Thi - Chua noi cung anh
TTITLE3=Manh Quynh - Ngay sau se ra sao
TTITLE4=Mong Thi - Nhat ky hai dua minh
TTITLE5=Manh Quynh - Yeu tham
TTITLE6=Mong Thi - Co Tam ngay nay
TTITLE7=Manh Quynh - Bao dem khong ngu
TTITLE8=Mong Thi - Ve tham que ngoai
TTITLE9=Manh Quynh - Dem lang thang
TTITLE10=hoa tau - Tieng hat chim da da
TTITLE11=hoa tau - Dieu buon phuong Nam
EXTD=
EXTT0=
EXTT1=
EXTT2=
EXTT3=
EXTT4=
EXTT5=
EXTT6=
EXTT7=
EXTT8=
EXTT9=
EXTT10=
EXTT11=
PLAYORDER=
